<svg width="32" height="32" viewBox="0 0 32 32" fill="none" xmlns="http://www.w3.org/2000/svg">
<path d="M22.6673 4C23.3884 4.0002 24.1707 4.48446 24.5306 5.15039L27.762 11.1602C28.1351 11.8589 28.0622 12.8563 27.5911 13.4834L17.0608 27.4199C16.9687 27.5412 16.8468 27.6152 16.7327 27.6992L16.7063 27.79L16.6497 27.7715C16.4347 27.9084 16.2031 28 15.9544 28C15.7087 27.9999 15.4789 27.9115 15.2669 27.7793L15.1995 27.8027L15.1673 27.6934C15.0547 27.6078 14.9366 27.5342 14.846 27.416L4.40457 13.3936C3.93499 12.7602 3.8656 11.7624 4.24149 11.0684L7.45145 5.14648C7.80993 4.4821 8.59602 4 9.31864 4H22.6673ZM12.22 12.3896L15.931 24.7285L19.4437 12.3896H12.22ZM21.0931 12.3896L17.887 23.6455L26.3597 12.4336C26.367 12.4243 26.3655 12.4021 26.3714 12.3896H21.0931ZM5.6702 12.3896L13.8802 23.415L10.5638 12.3896H5.6702ZM6.25516 10.7119H10.1419L8.44169 6.68164L6.25516 10.7119ZM15.93 5.67773L12.5061 10.7119H19.4397L16.0159 5.67773H15.93ZM21.804 10.7119H25.7044L23.5169 6.64746L21.804 10.7119ZM9.74833 5.67773L11.3694 9.51953L13.9827 5.67773H9.74833ZM17.9632 5.67773L20.5765 9.51953L22.1956 5.67773H17.9632Z" fill="#71F0F6"/>
</svg>
