<?xml version="1.0" standalone="no"?><!DOCTYPE svg PUBLIC "-//W3C//DTD SVG 1.1//EN" "http://www.w3.org/Graphics/SVG/1.1/DTD/svg11.dtd"><svg t="1774938664445" class="icon" viewBox="0 0 1024 1024" version="1.1" xmlns="http://www.w3.org/2000/svg" p-id="5370" xmlns:xlink="http://www.w3.org/1999/xlink" width="32" height="32"><path d="M716 332l167.428-167.43-61.144-61.144-167.428 167.428z m255.428-167.43q0 15.43-10.286 25.714L226.286 925.14Q216 935.426 200.572 935.426t-25.714-10.286L61.714 811.996q-10.286-10.286-10.286-25.714t10.286-25.714L796.57 25.712q10.286-10.286 25.714-10.286t25.714 10.286l113.144 113.144q10.286 10.286 10.286 25.714zM199.43 56l56 17.144-56 17.144-17.144 56-17.144-56-56-17.144 56-17.144 17.144-56z m199.998 92.57l112 34.286-112 34.286-34.286 112-34.286-112-112-34.286 112-34.286 34.286-112z m531.428 273.144l56 17.142-56 17.144-17.144 56-17.144-56-56-17.144 56-17.144 17.144-56zM565.144 56l56 17.144-56 17.144-17.144 56-17.144-56-56-17.144 56-17.144L548 0z" fill="#71F0F6" p-id="5371"></path></svg>