<?xml version="1.0" standalone="no"?><!DOCTYPE svg PUBLIC "-//W3C//DTD SVG 1.1//EN" "http://www.w3.org/Graphics/SVG/1.1/DTD/svg11.dtd"><svg t="1774938558550" class="icon" viewBox="0 0 1024 1024" version="1.1" xmlns="http://www.w3.org/2000/svg" p-id="6034" width="32" height="32" xmlns:xlink="http://www.w3.org/1999/xlink"><path d="M512 942C274.9 942 82 749.11 82 512 82 274.9 274.9 82 512 82c237.11 0 430 192.9 430 430 0 237.11-192.89 430-430 430z m0-800c-204.02 0-370 165.98-370 370s165.98 370 370 370 370-165.98 370-370-165.98-370-370-370z" p-id="6035" fill="#ffffff"></path><path d="M512 942c-117.75 0-210-188.89-210-430 0-241.12 92.25-430 210-430s210 188.88 210 430c0 241.11-92.25 430-210 430z m0-800c-70.95 0-150 151.95-150 370s79.05 370 150 370c70.96 0 150-151.95 150-370s-79.04-370-150-370z" p-id="6036" fill="#ffffff"></path><path d="M912 542H112c-16.57 0-30-13.43-30-30s13.43-30 30-30h800c16.56 0 30 13.43 30 30s-13.44 30-30 30z" p-id="6037" fill="#ffffff"></path><path d="M512 938.64c-16.57 0-30-13.44-30-30V112c0-16.57 13.43-30 30-30s30 13.43 30 30v796.64c0 16.56-13.43 30-30 30z" p-id="6038" fill="#ffffff"></path><path d="M512 942c-104.29 0-205.08-38.16-283.79-107.48-6.46-5.7-10.18-13.91-10.18-22.52s3.71-16.82 10.18-22.52C306.92 720.16 407.71 682 512 682c104.3 0 205.08 38.16 283.79 107.48 6.46 5.7 10.18 13.91 10.18 22.52s-3.71 16.82-10.18 22.52C717.08 903.84 616.3 942 512 942zM296.06 812c62.83 45.35 138.26 70 215.94 70s153.11-24.65 215.94-70c-62.83-45.35-138.26-70-215.94-70s-153.11 24.65-215.94 70zM512 342c-104.31 0-205.09-38.17-283.79-107.49-6.47-5.69-10.18-13.9-10.18-22.51s3.7-16.82 10.18-22.51C306.91 120.17 407.69 82 512 82c104.3 0 205.1 38.17 283.79 107.49 6.46 5.69 10.18 13.9 10.18 22.51s-3.71 16.82-10.18 22.51C717.1 303.83 616.3 342 512 342zM296.06 212c62.82 45.36 138.25 70 215.94 70 77.68 0 153.12-24.64 215.94-70-62.81-45.36-138.26-70-215.94-70-77.69 0-153.12 24.64-215.94 70z" p-id="6039" fill="#ffffff"></path></svg>