<svg width="32" height="32" viewBox="0 0 32 32" fill="none" xmlns="http://www.w3.org/2000/svg">
<path d="M16 2C8.2685 2 2 8.2685 2 16C2 23.7315 8.2685 30 16 30C23.7315 30 30 23.7315 30 16C30 12.287 28.525 8.72601 25.8995 6.10051C23.274 3.475 19.713 2 16 2ZM18.9698 7.43015C18.1822 6.6425 17.1139 6.2 16 6.2C14.8861 6.2 13.8178 6.6425 13.0302 7.43015C12.2425 8.2178 11.8 9.28609 11.8 10.4C11.8 11.5139 12.2425 12.5822 13.0302 13.3698C13.8178 14.1575 14.8861 14.6 16 14.6C17.1139 14.6 18.1822 14.1575 18.9698 13.3698C19.7575 12.5822 20.2 11.5139 20.2 10.4C20.2 9.28609 19.7575 8.2178 18.9698 7.43015ZM20.4036 24.7364C21.7698 24.0492 22.9563 23.0518 23.868 21.824C24.0087 21.6184 24.0919 21.3789 24.1092 21.1303C24.1264 20.8818 24.077 20.6331 23.966 20.41L23.644 19.752C23.2987 19.0473 22.7628 18.4534 22.0972 18.0377C21.4316 17.6219 20.6628 17.401 19.878 17.4H12.122C11.3265 17.4009 10.5475 17.6276 9.87588 18.0539C9.20421 18.4802 8.66743 19.0885 8.328 19.808L8.034 20.424C7.92568 20.6453 7.8777 20.8913 7.89491 21.1372C7.91211 21.383 7.9939 21.6199 8.132 21.824C9.04373 23.0518 10.2302 24.0492 11.5964 24.7364C12.9626 25.4236 14.4707 25.7815 16 25.7815C17.5293 25.7815 19.0374 25.4236 20.4036 24.7364Z" fill="white" fill-opacity="0.3"/>
<path d="M23.868 21.824C22.9563 23.0518 21.7698 24.0492 20.4036 24.7364C19.0374 25.4236 17.5293 25.7815 16 25.7815C14.4707 25.7815 12.9626 25.4236 11.5964 24.7364C10.2302 24.0492 9.04373 23.0518 8.132 21.824C7.9939 21.6199 7.91211 21.383 7.89491 21.1372C7.8777 20.8913 7.92568 20.6453 8.034 20.424L8.328 19.808C8.66743 19.0885 9.20421 18.4802 9.87588 18.0539C10.5475 17.6276 11.3265 17.4009 12.122 17.4H19.878C20.6628 17.401 21.4316 17.6219 22.0972 18.0377C22.7628 18.4534 23.2987 19.0473 23.644 19.752L23.966 20.41C24.077 20.6331 24.1264 20.8818 24.1092 21.1303C24.0919 21.3789 24.0087 21.6184 23.868 21.824Z" fill="white"/>
<path d="M16 6.2C17.1139 6.2 18.1822 6.6425 18.9698 7.43015C19.7575 8.2178 20.2 9.28609 20.2 10.4C20.2 11.5139 19.7575 12.5822 18.9698 13.3698C18.1822 14.1575 17.1139 14.6 16 14.6C14.8861 14.6 13.8178 14.1575 13.0302 13.3698C12.2425 12.5822 11.8 11.5139 11.8 10.4C11.8 9.28609 12.2425 8.2178 13.0302 7.43015C13.8178 6.6425 14.8861 6.2 16 6.2Z" fill="white"/>
</svg>
