<svg width="24" height="24" viewBox="0 0 24 24" fill="none" xmlns="http://www.w3.org/2000/svg">
<path d="M11.9999 1.6853C14.0682 1.68532 16.0521 2.50701 17.5146 3.96948C18.9769 5.43195 19.7987 7.41597 19.7987 9.48413V13.0964L21.5536 16.6072C21.6953 16.8904 21.7622 17.2059 21.748 17.5222C21.7337 17.8383 21.6389 18.1456 21.4726 18.4148C21.3061 18.6841 21.0734 18.9071 20.7968 19.0613C20.5204 19.2153 20.209 19.2956 19.8925 19.2957H16.4443C16.1298 20.0895 15.6057 20.7882 14.9247 21.3152C14.0874 21.963 13.0586 22.3142 11.9999 22.3142C10.9412 22.3142 9.91247 21.963 9.07512 21.3152C8.39414 20.7882 7.87008 20.0895 7.55559 19.2957H4.10734C3.79089 19.2956 3.47947 19.2153 3.20305 19.0613C2.92646 18.9071 2.69376 18.6842 2.52727 18.4148C2.36093 18.1456 2.26616 17.8383 2.25188 17.5222C2.23765 17.2059 2.30457 16.8904 2.44621 16.6072L4.20109 13.0964V9.48413C4.20109 7.41595 5.02291 5.43195 6.48527 3.96948C7.94776 2.50702 9.93167 1.6853 11.9999 1.6853ZM9.2343 19.2957C9.43616 19.6127 9.69178 19.8955 9.99309 20.1287C10.5677 20.5732 11.2734 20.8142 11.9999 20.8142C12.7264 20.8142 13.4322 20.5732 14.0068 20.1287C14.3081 19.8955 14.5637 19.6127 14.7655 19.2957H9.2343ZM11.9999 3.1853C10.3295 3.1853 8.727 3.84887 7.54582 5.03003C6.36476 6.21119 5.70109 7.81378 5.70109 9.48413V13.4509L3.78801 17.2781C3.76074 17.3326 3.74718 17.3939 3.74992 17.4548C3.75272 17.5156 3.77164 17.575 3.80363 17.6267C3.83567 17.6784 3.8804 17.7211 3.93352 17.7507C3.98667 17.7803 4.04652 17.7956 4.10734 17.7957H19.8925C19.9533 17.7956 20.0132 17.7803 20.0663 17.7507C20.1194 17.7211 20.1642 17.6784 20.1962 17.6267C20.2282 17.575 20.2471 17.5156 20.2499 17.4548C20.2527 17.3939 20.2391 17.3326 20.2118 17.2781L18.2987 13.4509V9.48413C18.2987 7.8138 17.6351 6.21119 16.454 5.03003C15.2729 3.84886 13.6703 3.18532 11.9999 3.1853Z" fill="white" fill-opacity="0.7"/>
</svg>
