<svg width="24" height="24" viewBox="0 0 24 24" fill="none" xmlns="http://www.w3.org/2000/svg">
<path d="M12 1.75C17.65 1.75 22.25 6.35 22.25 12C22.25 17.65 17.65 22.25 12 22.25C6.35 22.25 1.75 17.65 1.75 12C1.75 6.35 6.35 1.75 12 1.75ZM12 3.25C7.2 3.25 3.25 7.2 3.25 12C3.25 16.8 7.2 20.75 12 20.75C16.8 20.75 20.75 16.8 20.75 12C20.75 7.2 16.8 3.25 12 3.25ZM8 11C8.13133 11 8.26148 11.0259 8.38281 11.0762C8.50409 11.1264 8.61421 11.2001 8.70703 11.293C8.79985 11.3858 8.87359 11.4959 8.92383 11.6172C8.97407 11.7385 9.00002 11.8687 9 12C9.00002 12.1313 8.97407 12.2615 8.92383 12.3828C8.87359 12.5041 8.79985 12.6142 8.70703 12.707C8.61421 12.7999 8.50409 12.8736 8.38281 12.9238C8.26148 12.9741 8.13133 13 8 13C7.86867 13 7.73852 12.9741 7.61719 12.9238C7.49591 12.8736 7.38579 12.7999 7.29297 12.707C7.20015 12.6142 7.12641 12.5041 7.07617 12.3828C7.02593 12.2615 6.99998 12.1313 7 12C6.99998 11.8687 7.02593 11.7385 7.07617 11.6172C7.12641 11.4959 7.20015 11.3858 7.29297 11.293C7.38579 11.2001 7.49591 11.1264 7.61719 11.0762C7.73852 11.0259 7.86867 11 8 11ZM12 11C12.2652 11 12.5195 11.1054 12.707 11.293C12.8946 11.4805 13 11.7348 13 12C13 12.2652 12.8946 12.5195 12.707 12.707C12.5195 12.8946 12.2652 13 12 13C11.7348 13 11.4805 12.8946 11.293 12.707C11.1054 12.5195 11 12.2652 11 12C11 11.7348 11.1054 11.4805 11.293 11.293C11.4805 11.1054 11.7348 11 12 11ZM16 11C16.1313 11 16.2615 11.0259 16.3828 11.0762C16.5041 11.1264 16.6142 11.2001 16.707 11.293C16.7999 11.3858 16.8736 11.4959 16.9238 11.6172C16.9741 11.7385 17 11.8687 17 12C17 12.1313 16.9741 12.2615 16.9238 12.3828C16.8736 12.5041 16.7999 12.6142 16.707 12.707C16.6142 12.7999 16.5041 12.8736 16.3828 12.9238C16.2615 12.9741 16.1313 13 16 13C15.8687 13 15.7385 12.9741 15.6172 12.9238C15.4959 12.8736 15.3858 12.7999 15.293 12.707C15.2001 12.6142 15.1264 12.5041 15.0762 12.3828C15.0259 12.2615 15 12.1313 15 12C15 11.8687 15.0259 11.7385 15.0762 11.6172C15.1264 11.4959 15.2001 11.3858 15.293 11.293C15.3858 11.2001 15.4959 11.1264 15.6172 11.0762C15.7385 11.0259 15.8687 11 16 11Z" fill="white" fill-opacity="0.7"/>
</svg>
